<mxfile host="app.diagrams.net" modified="2021-06-22T06:27:06.435Z" agent="5.0 (Macintosh; Intel Mac OS X 10_15_7) AppleWebKit/605.1.15 (KHTML, like Gecko) Version/14.1 Safari/605.1.15" etag="FbsuV_Zfm7tg3tupH62q" version="14.8.0" type="github">
  <diagram id="2adIN8vBMXEGLxBycQA0" name="Page-1">
    <mxGraphModel dx="946" dy="645" grid="1" gridSize="10" guides="1" tooltips="1" connect="1" arrows="1" fold="1" page="1" pageScale="1" pageWidth="827" pageHeight="1169" math="0" shadow="0">
      <root>
        <mxCell id="0" />
        <mxCell id="1" parent="0" />
        <mxCell id="O4c7sGrxcaKf4xFvDgeS-2" value="@RequestMapping@Controller" style="rounded=1;whiteSpace=wrap;html=1;fillColor=#f0a30a;strokeColor=#BD7000;fontColor=#000000;" vertex="1" parent="1">
          <mxGeometry x="150" y="100" width="190" height="50" as="geometry" />
        </mxCell>
        <mxCell id="O4c7sGrxcaKf4xFvDgeS-3" value="Router Function" style="rounded=1;whiteSpace=wrap;html=1;fillColor=#60a917;strokeColor=#2D7600;fontColor=#ffffff;" vertex="1" parent="1">
          <mxGeometry x="350" y="100" width="180" height="50" as="geometry" />
        </mxCell>
        <mxCell id="O4c7sGrxcaKf4xFvDgeS-4" value="Spring-WebMVC" style="rounded=1;whiteSpace=wrap;html=1;fillColor=#f0a30a;strokeColor=#BD7000;fontColor=#000000;" vertex="1" parent="1">
          <mxGeometry x="150" y="160" width="150" height="50" as="geometry" />
        </mxCell>
        <mxCell id="O4c7sGrxcaKf4xFvDgeS-5" value="Spring -WebFlux" style="rounded=1;whiteSpace=wrap;html=1;fillColor=#60a917;strokeColor=#2D7600;fontColor=#ffffff;" vertex="1" parent="1">
          <mxGeometry x="310" y="160" width="220" height="50" as="geometry" />
        </mxCell>
        <mxCell id="O4c7sGrxcaKf4xFvDgeS-7" value="Netty/Jetty/Tomcat/Undertow" style="rounded=1;whiteSpace=wrap;html=1;fillColor=#60a917;strokeColor=#2D7600;fontColor=#ffffff;" vertex="1" parent="1">
          <mxGeometry x="310" y="280" width="220" height="50" as="geometry" />
        </mxCell>
        <mxCell id="O4c7sGrxcaKf4xFvDgeS-8" value="Servlet Container" style="rounded=1;whiteSpace=wrap;html=1;fillColor=#f0a30a;strokeColor=#BD7000;fontColor=#000000;" vertex="1" parent="1">
          <mxGeometry x="150" y="280" width="150" height="50" as="geometry" />
        </mxCell>
        <mxCell id="O4c7sGrxcaKf4xFvDgeS-9" value="HTTP/Reactor-Stream" style="rounded=1;whiteSpace=wrap;html=1;fillColor=#60a917;strokeColor=#2D7600;fontColor=#ffffff;" vertex="1" parent="1">
          <mxGeometry x="310" y="220" width="220" height="50" as="geometry" />
        </mxCell>
        <mxCell id="O4c7sGrxcaKf4xFvDgeS-10" value="Servlet API" style="rounded=1;whiteSpace=wrap;html=1;fillColor=#f0a30a;strokeColor=#BD7000;fontColor=#000000;" vertex="1" parent="1">
          <mxGeometry x="150" y="220" width="150" height="50" as="geometry" />
        </mxCell>
      </root>
    </mxGraphModel>
  </diagram>
</mxfile>
